<?xml version="1.0" encoding="utf-8"?>
<!-- Generator: Adobe Illustrator 19.0.0, SVG Export Plug-In . SVG Version: 6.00 Build 0)  -->
<svg version="1.1" id="Layer_1_copy" xmlns="http://www.w3.org/2000/svg" xmlns:xlink="http://www.w3.org/1999/xlink" x="0px"
	 y="0px" viewBox="0 83 350 35" style="enable-background:new 0 83 350 35;" xml:space="preserve">
<style type="text/css">
	.st0{fill:#C80000;}
	.st1{fill:#666666;}
	.st2{fill:#0000C8;}
	.st3{fill:#193F8F;}
</style>
<g id="XMLID_86_">
	<g id="XMLID_83_">
		<g id="XMLID_124_">
			<path id="XMLID_125_" d="M13.4,92.7H4v-1.1h9.4V92.7z"/>
			<path id="XMLID_127_" d="M22.8,93.9L22.8,93.9c0,1-0.3,1.8-1,2.5c-0.7,0.6-1.6,1-2.7,1c-1.2,0-2.1-0.4-2.8-1.2
				c-0.7-0.8-1.1-1.9-1.1-3.1v-1.9c0-1.3,0.4-2.3,1.1-3.1c0.7-0.8,1.7-1.2,2.8-1.2c1.2,0,2.1,0.3,2.8,0.9c0.7,0.6,1,1.4,1,2.4l0,0
				h-1.3c0-0.7-0.2-1.3-0.6-1.7s-1-0.6-1.8-0.6s-1.4,0.3-1.8,0.9c-0.4,0.6-0.7,1.4-0.7,2.3V93c0,0.9,0.2,1.7,0.7,2.3
				c0.5,0.6,1.1,0.9,1.8,0.9c0.8,0,1.4-0.2,1.8-0.6s0.6-1,0.6-1.7H22.8z"/>
			<path id="XMLID_129_" class="st0" d="M32.4,93c0,1.2-0.4,2.3-1.2,3.1c-0.8,0.8-1.8,1.2-3,1.2s-2.2-0.4-2.9-1.2
				c-0.7-0.8-1.1-1.9-1.1-3.1v-1.8c0-1.2,0.4-2.3,1.1-3.1c0.7-0.8,1.7-1.2,2.9-1.2c1.2,0,2.2,0.4,3,1.2c0.8,0.8,1.2,1.9,1.2,3.1V93z
				 M31,91.2c0-0.9-0.3-1.7-0.8-2.3S29,88,28.2,88s-1.4,0.3-1.9,0.9s-0.7,1.4-0.7,2.3V93c0,0.9,0.2,1.7,0.7,2.3
				c0.5,0.6,1.1,0.9,1.9,0.9c0.9,0,1.5-0.3,2-0.9C30.8,94.7,31,94,31,93V91.2z"/>
			<path id="XMLID_132_" class="st0" d="M42.2,93c0,1.2-0.4,2.3-1.2,3.1c-0.8,0.8-1.8,1.2-3,1.2s-2.2-0.4-2.9-1.2
				C34.4,95.3,34,94.3,34,93v-1.8c0-1.2,0.4-2.3,1.1-3.1c0.7-0.8,1.7-1.2,2.9-1.2s2.2,0.4,3,1.2c0.8,0.8,1.2,1.9,1.2,3.1V93z
				 M40.8,91.2c0-0.9-0.3-1.7-0.8-2.3c-0.4-0.6-1.1-0.9-2-0.9c-0.8,0-1.4,0.3-1.9,0.9s-0.7,1.4-0.7,2.3V93c0,0.9,0.2,1.7,0.7,2.3
				c0.5,0.6,1.1,0.9,1.9,0.9c0.9,0,1.5-0.3,2-0.9c0.5-0.6,0.8-1.4,0.8-2.3V91.2z"/>
			<path id="XMLID_135_" class="st1" d="M52,97.2h-1.4v-4.5h-5v4.5h-1.4V87h1.4v4.6h5V87H52V97.2z"/>
		</g>
		<g id="XMLID_109_">
			<path id="XMLID_110_" d="M264.3,92.7h-9.4v-1.1h9.4V92.7z"/>
			<path id="XMLID_112_" class="st0" d="M274.3,93c0,1.2-0.4,2.3-1.2,3.1c-0.8,0.8-1.8,1.2-3,1.2s-2.2-0.4-2.9-1.2
				c-0.7-0.8-1.1-1.9-1.1-3.1v-1.8c0-1.2,0.4-2.3,1.1-3.1c0.7-0.8,1.7-1.2,2.9-1.2c1.2,0,2.2,0.4,3,1.2c0.8,0.8,1.2,1.9,1.2,3.1V93z
				 M272.9,91.2c0-0.9-0.3-1.7-0.8-2.3s-1.2-0.9-2-0.9s-1.4,0.3-1.9,0.9s-0.7,1.4-0.7,2.3V93c0,0.9,0.2,1.7,0.7,2.3
				c0.5,0.6,1.1,0.9,1.9,0.9c0.9,0,1.5-0.3,2-0.9c0.5-0.6,0.8-1.4,0.8-2.3V91.2z"/>
			<path id="XMLID_115_" class="st1" d="M284,97.2h-1.4v-4.5h-5v4.5h-1.4V87h1.4v4.6h5V87h1.4V97.2z"/>
		</g>
		<g id="XMLID_100_">
			<path id="XMLID_101_" d="M319.3,91.2h-9.4v-1.1h9.4V91.2z"/>
			<path id="XMLID_103_" class="st2" d="M329.2,95.8h-1.4l-4.9-7.9l0,0v7.9h-1.4V85.6h1.4l4.9,7.9l0,0v-7.9h1.4V95.8z"/>
			<path id="XMLID_105_" class="st1" d="M339.4,95.8H338v-4.5h-5v4.5h-1.4V85.6h1.4v4.6h5v-4.6h1.4V95.8z"/>
			<path id="XMLID_107_" class="st1" d="M346.7,98.6h-5.3v-0.8l2.7-3c0.5-0.5,0.8-1,1-1.3s0.3-0.6,0.3-1s-0.1-0.8-0.4-1
				c-0.2-0.3-0.6-0.4-0.9-0.4c-0.6,0-1,0.1-1.2,0.4c-0.3,0.3-0.4,0.7-0.4,1.2h-1.1l0,0c0-0.7,0.2-1.3,0.7-1.8s1.2-0.7,2-0.7
				c0.7,0,1.3,0.2,1.8,0.6c0.4,0.4,0.7,1,0.7,1.6c0,0.4-0.1,0.9-0.4,1.3c-0.3,0.4-0.6,0.9-1.1,1.4l-2.1,2.3l0,0h3.9v1.2H346.7z"/>
		</g>
		<g id="XMLID_63_">
			<path id="XMLID_79_" d="M87.2,93.9L87.2,93.9c0,1-0.3,1.8-1,2.5c-0.7,0.6-1.6,1-2.7,1c-1.2,0-2.1-0.4-2.8-1.2
				c-0.7-0.8-1.1-1.9-1.1-3.1v-1.9c0-1.3,0.4-2.3,1.1-3.1c0.7-0.8,1.7-1.2,2.8-1.2c1.2,0,2.1,0.3,2.8,0.9c0.7,0.6,1,1.4,1,2.4l0,0
				H86c0-0.7-0.2-1.3-0.6-1.7s-1-0.6-1.8-0.6s-1.4,0.3-1.8,0.9c-0.5,0.6-0.7,1.4-0.7,2.3V93c0,0.9,0.2,1.7,0.7,2.3
				c0.5,0.6,1.1,0.9,1.8,0.9c0.8,0,1.4-0.2,1.8-0.6s0.6-1,0.6-1.7H87.2z"/>
			<path id="XMLID_77_" class="st2" d="M108.5,97.2h-1.4l-4.9-7.9l0,0v7.9h-1.4V87h1.4l4.9,7.9l0,0V87h1.4V97.2z"/>
			<g id="XMLID_67_">
				<g id="XMLID_74_">
					<path id="XMLID_75_" d="M98.4,96.1H89V95h9.4V96.1z"/>
				</g>
				<g id="XMLID_71_">
					<path id="XMLID_72_" d="M98.4,92.6H89v-1h9.4V92.6z"/>
				</g>
				<g id="XMLID_68_">
					<path id="XMLID_69_" d="M98.4,89.2H89v-1.1h9.4V89.2z"/>
				</g>
			</g>
			<g id="XMLID_64_">
				<path id="XMLID_65_" d="M78,92.6h-9.4v-1H78V92.6z"/>
			</g>
		</g>
		<g id="XMLID_46_">
			<g id="XMLID_117_">
				<path id="XMLID_118_" d="M137.2,92.7h-9.4v-1.1h9.4V92.7z"/>
				<path id="XMLID_120_" d="M146.7,93.9L146.7,93.9c0,1-0.3,1.8-1,2.5c-0.7,0.6-1.6,1-2.7,1c-1.2,0-2.1-0.4-2.8-1.2
					c-0.7-0.8-1.2-1.9-1.2-3.2v-1.8c0-1.3,0.4-2.3,1.1-3.1c0.7-0.8,1.7-1.2,2.8-1.2s2.1,0.3,2.8,0.9c0.7,0.6,1,1.4,1,2.4l0,0h-1.3
					c0-0.7-0.2-1.3-0.6-1.7c-0.4-0.4-1-0.6-1.8-0.6s-1.4,0.3-1.8,0.9c-0.4,0.6-0.7,1.4-0.7,2.3V93c0,0.9,0.2,1.7,0.7,2.3
					c0.5,0.6,1.1,0.9,1.8,0.9c0.8,0,1.4-0.2,1.8-0.6c0.4-0.4,0.6-1,0.6-1.7H146.7z"/>
				<path id="XMLID_122_" class="st1" d="M156.3,97.2h-1.4v-4.5h-5v4.5h-1.4V87h1.4v4.6h5V87h1.4V97.2z"/>
			</g>
			<g id="XMLID_96_">
				<path id="XMLID_97_" class="st0" d="M177.4,93c0,1.2-0.4,2.3-1.2,3.1c-0.8,0.8-1.8,1.2-3,1.2s-2.2-0.4-2.9-1.2
					c-0.7-0.8-1.1-1.9-1.1-3.1v-1.8c0-1.2,0.4-2.3,1.1-3.1c0.7-0.8,1.7-1.2,2.9-1.2s2.2,0.4,3,1.2c0.8,0.8,1.2,1.9,1.2,3.1V93z
					 M176.1,91.2c0-0.9-0.3-1.7-0.8-2.3s-1.2-0.9-2-0.9s-1.4,0.3-1.9,0.9s-0.7,1.4-0.7,2.3V93c0,0.9,0.2,1.7,0.7,2.3
					c0.5,0.6,1.1,0.9,1.9,0.9c0.9,0,1.5-0.3,2-0.9c0.5-0.6,0.8-1.4,0.8-2.3V91.2z"/>
			</g>
			<g id="XMLID_30_">
				<g id="XMLID_60_">
					<path id="XMLID_61_" d="M167,94.4h-9.4v-1.1h9.4V94.4z"/>
				</g>
				<g id="XMLID_57_">
					<path id="XMLID_58_" d="M167,90.9h-9.4v-1.1h9.4V90.9z"/>
				</g>
			</g>
		</g>
		<g id="XMLID_45_">
			<g id="XMLID_93_">
				<path id="XMLID_94_" d="M209.9,93.9L209.9,93.9c0,1-0.3,1.8-1,2.5c-0.7,0.6-1.6,1-2.7,1c-1.2,0-2.1-0.4-2.8-1.2
					c-0.7-0.8-1.1-1.9-1.1-3.1v-1.9c0-1.3,0.4-2.3,1.1-3.1c0.7-0.8,1.7-1.2,2.8-1.2s2.1,0.3,2.8,0.9c0.7,0.6,1,1.4,1,2.4l0,0h-1.3
					c0-0.7-0.2-1.3-0.6-1.7c-0.4-0.4-1-0.6-1.8-0.6s-1.4,0.3-1.8,0.9c-0.4,0.6-0.7,1.4-0.7,2.3V93c0,0.9,0.2,1.7,0.7,2.3
					c0.5,0.6,1.1,0.9,1.8,0.9c0.8,0,1.4-0.2,1.8-0.6c0.4-0.4,0.6-1,0.6-1.7H209.9z"/>
			</g>
			<g id="XMLID_89_">
				<path id="XMLID_90_" class="st0" d="M232.5,93c0,1.2-0.4,2.3-1.2,3.1c-0.8,0.8-1.8,1.2-3,1.2s-2.2-0.4-2.9-1.2
					c-0.7-0.8-1.1-1.9-1.1-3.1v-1.8c0-1.2,0.4-2.3,1.1-3.1c0.7-0.8,1.7-1.2,2.9-1.2s2.2,0.4,3,1.2c0.8,0.8,1.2,1.9,1.2,3.1V93z
					 M231.1,91.2c0-0.9-0.3-1.7-0.8-2.3s-1.2-0.9-2-0.9s-1.4,0.3-1.9,0.9s-0.7,1.4-0.7,2.3V93c0,0.9,0.2,1.7,0.7,2.3
					c0.5,0.6,1.1,0.9,1.9,0.9c0.9,0,1.5-0.3,2-0.9c0.5-0.6,0.8-1.4,0.8-2.3V91.2z"/>
			</g>
			<g id="XMLID_85_">
				<g id="XMLID_52_">
					<path id="XMLID_53_" d="M222,94.4h-9.4v-1.1h9.4V94.4z"/>
				</g>
				<g id="XMLID_48_">
					<path id="XMLID_49_" d="M222,90.9h-9.4v-1.1h9.4V90.9z"/>
				</g>
			</g>
			<polygon id="XMLID_142_" points="199.5,90.9 193.7,85 192.9,85.8 198.7,91.6 192.9,97.5 193.7,98.3 200.3,91.6 			"/>
		</g>
	</g>
	<g id="XMLID_84_">
		<g id="XMLID_290_">
			<path id="XMLID_291_" d="M6.4,110.7H5.7v2.9H4.8v-6.4h0.9v2.8h0.7l2.3-2.8h1l0,0l-2.5,3.1l2.7,3.3l0,0h-1L6.4,110.7z"/>
			<path id="XMLID_293_" d="M14.1,108.8v3.5c0,0.2,0,0.4,0.1,0.4c0.1,0.1,0.1,0.1,0.2,0.1h0.1h0.1l0.1,0.6c-0.1,0.1-0.2,0.1-0.3,0.1
				s-0.2,0-0.3,0c-0.2,0-0.4,0-0.5-0.1s-0.3-0.2-0.3-0.4c-0.2,0.2-0.4,0.3-0.6,0.4c-0.2,0.1-0.5,0.1-0.8,0.1c-0.6,0-1-0.2-1.4-0.6
				c-0.3-0.4-0.5-1-0.5-1.7v-0.1c0-0.8,0.2-1.4,0.5-1.8c0.3-0.5,0.8-0.7,1.4-0.7c0.3,0,0.6,0.1,0.8,0.2c0.2,0.1,0.4,0.3,0.6,0.5
				l0.2-0.5H14.1z M11,111.4c0,0.5,0.1,0.9,0.3,1.2c0.2,0.3,0.5,0.4,0.9,0.4c0.2,0,0.4-0.1,0.6-0.2c0.2-0.1,0.3-0.2,0.4-0.4l0,0V110
				c-0.1-0.2-0.3-0.3-0.4-0.4c-0.2-0.1-0.4-0.2-0.6-0.2c-0.4,0-0.7,0.2-0.9,0.5C11.1,110.2,11,110.7,11,111.4L11,111.4z"/>
			<path id="XMLID_296_" d="M19.4,111.4c0,0.7-0.2,1.2-0.5,1.7c-0.3,0.4-0.8,0.6-1.3,0.6c-0.3,0-0.5,0-0.8-0.1s-0.4-0.2-0.6-0.4v2.3
				h-0.9V111l0,0c0-0.7,0.2-1.3,0.6-1.7c0.4-0.4,0.8-0.6,1.4-0.6c0.7,0,1.2,0.2,1.5,0.7C19.2,109.9,19.4,110.5,19.4,111.4
				L19.4,111.4z M18.6,111.3c0-0.6-0.1-1-0.3-1.3s-0.5-0.5-0.9-0.5s-0.6,0.2-0.8,0.5c-0.2,0.3-0.3,0.7-0.3,1.1v1.3
				c0.1,0.2,0.3,0.3,0.4,0.5c0.2,0.1,0.4,0.2,0.6,0.2c0.4,0,0.7-0.1,0.9-0.4C18.5,112.2,18.6,111.8,18.6,111.3L18.6,111.3z"/>
			<path id="XMLID_299_" d="M22.5,107.1c0.6,0,1,0.2,1.4,0.5c0.4,0.3,0.5,0.7,0.5,1.2c0,0.3-0.1,0.5-0.2,0.7
				c-0.1,0.2-0.3,0.4-0.6,0.5c0.3,0.1,0.6,0.3,0.8,0.6c0.2,0.3,0.3,0.6,0.3,1c0,0.6-0.2,1.1-0.6,1.4c-0.4,0.3-0.9,0.5-1.4,0.5
				c-0.2,0-0.5,0-0.7-0.1s-0.4-0.2-0.6-0.3v2h-0.9v-6.4c0-0.5,0.2-0.9,0.6-1.3C21.5,107.3,22,107.1,22.5,107.1z M22.5,109.8
				c0.4,0,0.6-0.1,0.8-0.3c0.2-0.2,0.3-0.4,0.3-0.7c0-0.3-0.1-0.5-0.3-0.7s-0.4-0.3-0.8-0.3c-0.3,0-0.6,0.1-0.8,0.3
				c-0.2,0.2-0.3,0.5-0.3,0.8v3.6c0.1,0.2,0.3,0.3,0.5,0.4c0.2,0.1,0.4,0.1,0.7,0.1c0.4,0,0.7-0.1,0.9-0.4c0.2-0.2,0.3-0.5,0.3-0.9
				c0-0.3-0.1-0.6-0.3-0.9c-0.2-0.3-0.5-0.4-0.8-0.4h-0.6v-0.7h0.4V109.8z"/>
			<path id="XMLID_302_" d="M25.6,111.1c0-0.7,0.2-1.3,0.6-1.7c0.4-0.5,0.9-0.7,1.6-0.7s1.2,0.2,1.6,0.7s0.6,1,0.6,1.7v0.1
				c0,0.7-0.2,1.3-0.6,1.7s-0.9,0.7-1.6,0.7s-1.2-0.2-1.6-0.7C25.8,112.5,25.6,112,25.6,111.1L25.6,111.1z M26.5,111.2
				c0,0.5,0.1,0.9,0.3,1.2c0.2,0.3,0.5,0.5,0.9,0.5s0.7-0.2,0.9-0.5c0.2-0.3,0.3-0.7,0.3-1.2v-0.1c0-0.5-0.1-0.9-0.3-1.2
				c-0.2-0.3-0.5-0.5-0.9-0.5s-0.7,0.2-0.9,0.5C26.6,110.2,26.5,110.6,26.5,111.2L26.5,111.2z"/>
			<path id="XMLID_305_" d="M34.4,107.2v0.7h-1.3c-0.4,0-0.6,0.1-0.8,0.3c-0.2,0.2-0.3,0.4-0.3,0.7c0,0.3,0.1,0.5,0.3,0.6
				c0.2,0.2,0.5,0.2,1,0.2h0.6v0.7h-0.6c-0.5,0-1,0.1-1.3,0.3c-0.3,0.2-0.4,0.6-0.4,1c0,0.4,0.1,0.6,0.4,0.9c0.2,0.2,0.6,0.3,1,0.3
				h0.3c0.5,0,0.8,0.1,1.1,0.3c0.3,0.2,0.4,0.5,0.4,0.8c0,0.3-0.1,0.6-0.3,0.9c-0.2,0.2-0.5,0.4-0.8,0.6l-0.5-0.5
				c0.2-0.1,0.4-0.2,0.5-0.3c0.1-0.1,0.2-0.3,0.2-0.5c0-0.2-0.1-0.3-0.2-0.4c-0.1-0.1-0.3-0.1-0.5-0.1h-0.3c-0.7,0-1.2-0.2-1.6-0.5
				c-0.4-0.3-0.6-0.8-0.6-1.4c0-0.4,0.1-0.8,0.3-1.1c0.2-0.3,0.6-0.5,1-0.6c-0.3-0.1-0.6-0.3-0.7-0.5c-0.2-0.2-0.3-0.4-0.3-0.7
				c0-0.2,0-0.4,0.1-0.6c0.1-0.2,0.2-0.3,0.4-0.4h-0.9v-0.7C30.6,107.2,34.4,107.2,34.4,107.2z"/>
			<path id="XMLID_307_" d="M36.4,108.8v2.7c0,0.5,0.1,0.9,0.3,1.1c0.2,0.2,0.5,0.4,0.8,0.4c0.4,0,0.7-0.2,0.9-0.6s0.3-0.8,0.3-1.3
				c0-0.4-0.1-0.7-0.2-1.1s-0.2-0.8-0.4-1.2H39c0.1,0.3,0.3,0.7,0.4,1c0.1,0.4,0.1,0.8,0.1,1.2c0,0.7-0.2,1.4-0.5,1.8
				c-0.3,0.4-0.8,0.7-1.5,0.7c-0.6,0-1.1-0.2-1.5-0.5c-0.4-0.4-0.5-0.9-0.5-1.6v-2.7h0.9V108.8z M37.6,106.4h0.9l-0.8,1.6h-0.4
				L37.6,106.4z"/>
			<path id="XMLID_310_" d="M41.2,113.6h-1l1.7-4.5l-0.2-0.6c-0.1-0.2-0.2-0.4-0.3-0.6c-0.1-0.2-0.3-0.2-0.5-0.2c0,0-0.1,0-0.2,0
				c-0.1,0-0.1,0-0.1,0V107c0.1,0,0.1,0,0.2,0c0.1,0,0.2,0,0.2,0c0.4,0,0.7,0.1,0.9,0.4c0.2,0.2,0.4,0.5,0.5,0.8l1.6,4.2
				c0.1,0.2,0.1,0.4,0.3,0.5c0.1,0.1,0.2,0.2,0.3,0.2h0.1h0.1v0.7h-0.1c-0.1,0-0.1,0-0.1,0c-0.3,0-0.6-0.1-0.8-0.3s-0.4-0.5-0.5-0.9
				l-0.9-2.3l0,0l-0.1,0.5L41.2,113.6z"/>
			<path id="XMLID_312_" d="M46.9,108.8v3.6c0,0.2,0,0.4,0.1,0.4s0.2,0.1,0.3,0.1s0.1,0,0.2,0c0.1,0,0.1,0,0.2-0.1l0.2,0.6
				c-0.1,0.1-0.3,0.2-0.4,0.2c-0.1,0-0.3,0-0.4,0c-0.3,0-0.6-0.1-0.8-0.3s-0.3-0.5-0.3-1v-3.5C46,108.8,46.9,108.8,46.9,108.8z"/>
			<path id="XMLID_314_" d="M48.5,111.1c0-0.7,0.2-1.3,0.6-1.7c0.4-0.5,0.9-0.7,1.6-0.7c0.7,0,1.2,0.2,1.6,0.7
				c0.4,0.5,0.6,1,0.6,1.7v0.1c0,0.7-0.2,1.3-0.6,1.7s-0.9,0.7-1.6,0.7s-1.2-0.2-1.6-0.7C48.7,112.5,48.5,112,48.5,111.1L48.5,111.1
				z M49.4,111.2c0,0.5,0.1,0.9,0.3,1.2c0.2,0.3,0.5,0.5,0.9,0.5s0.7-0.2,0.9-0.5s0.3-0.7,0.3-1.2v-0.1c0-0.5-0.1-0.9-0.3-1.2
				c-0.2-0.3-0.5-0.5-0.9-0.5s-0.7,0.2-0.9,0.5C49.5,110.2,49.4,110.6,49.4,111.2L49.4,111.2z"/>
		</g>
		<g id="XMLID_265_">
			<path id="XMLID_266_" d="M67.8,110.8h-0.7v2.9h-0.9v-6.4h0.9v2.8h0.7l2.3-2.8h1l0,0l-2.5,3.1l2.7,3.3l0,0h-1L67.8,110.8z"/>
			<path id="XMLID_268_" d="M72.6,108.9v2.7c0,0.5,0.1,0.9,0.3,1.1c0.2,0.2,0.5,0.4,0.8,0.4c0.4,0,0.7-0.2,0.9-0.6
				c0.2-0.4,0.3-0.8,0.3-1.3c0-0.4-0.1-0.7-0.2-1.1s-0.2-0.8-0.4-1.2h0.9c0.1,0.3,0.3,0.7,0.4,1c0.1,0.4,0.1,0.8,0.1,1.2
				c0,0.7-0.2,1.4-0.5,1.8s-0.8,0.7-1.5,0.7c-0.6,0-1.1-0.2-1.5-0.5c-0.4-0.4-0.5-0.9-0.5-1.6v-2.7L72.6,108.9L72.6,108.9z"/>
			<path id="XMLID_270_" d="M80.6,108.9v3.5c0,0.2,0,0.4,0.1,0.4c0.1,0.1,0.1,0.1,0.2,0.1H81h0.1l0.1,0.6c-0.1,0.1-0.2,0.1-0.3,0.1
				s-0.2,0-0.3,0c-0.2,0-0.4,0-0.5-0.1s-0.3-0.2-0.3-0.4c-0.2,0.2-0.4,0.3-0.6,0.4s-0.5,0.1-0.8,0.1c-0.6,0-1-0.2-1.4-0.6
				c-0.3-0.4-0.5-1-0.5-1.7v-0.1c0-0.8,0.2-1.4,0.5-1.8c0.3-0.5,0.8-0.7,1.4-0.7c0.3,0,0.6,0.1,0.8,0.2s0.4,0.3,0.6,0.5l0.2-0.5
				H80.6z M77.5,111.5c0,0.5,0.1,0.9,0.3,1.2c0.2,0.3,0.5,0.4,0.9,0.4c0.2,0,0.4-0.1,0.6-0.2s0.3-0.2,0.4-0.4l0,0v-2.4
				c-0.1-0.2-0.3-0.3-0.4-0.4c-0.2-0.1-0.4-0.2-0.6-0.2c-0.4,0-0.7,0.2-0.9,0.5S77.5,110.8,77.5,111.5L77.5,111.5z"/>
			<path id="XMLID_273_" d="M83.5,112.3l0.1,0.3l0,0l0.1-0.3l1.1-3.4h0.9l-1.7,4.8h-0.7l-1.8-4.8h0.9L83.5,112.3z"/>
			<path id="XMLID_275_" d="M86.2,111.3c0-0.7,0.2-1.3,0.6-1.7c0.4-0.5,0.9-0.7,1.6-0.7s1.2,0.2,1.6,0.7s0.6,1,0.6,1.7v0.1
				c0,0.7-0.2,1.3-0.6,1.7s-0.9,0.7-1.6,0.7s-1.2-0.2-1.6-0.7C86.4,112.6,86.2,112.1,86.2,111.3L86.2,111.3z M87,111.3
				c0,0.5,0.1,0.9,0.3,1.2c0.2,0.3,0.5,0.5,0.9,0.5s0.7-0.2,0.9-0.5c0.2-0.3,0.3-0.7,0.3-1.2v-0.1c0-0.5-0.1-0.9-0.3-1.2
				c-0.2-0.3-0.5-0.5-0.9-0.5s-0.7,0.2-0.9,0.5S87,110.8,87,111.3L87,111.3z"/>
			<path id="XMLID_278_" d="M92.4,108.9v2.8c0,0.5,0.1,0.9,0.3,1.1c0.2,0.2,0.4,0.3,0.7,0.3c0.3,0,0.5-0.1,0.7-0.2
				c0.2-0.1,0.3-0.3,0.4-0.5v-3.5h0.9v4.8h-0.8v-0.5c-0.1,0.2-0.3,0.3-0.5,0.4s-0.4,0.1-0.6,0.1s-0.4,0-0.6-0.1
				c-0.2,0-0.3-0.1-0.4-0.2v2h-0.9v-6.6h0.8V108.9z"/>
			<path id="XMLID_280_" d="M100.4,108.9v3.5c0,0.2,0,0.4,0.1,0.4c0.1,0.1,0.1,0.1,0.2,0.1h0.1h0.1l0.1,0.6
				c-0.1,0.1-0.2,0.1-0.3,0.1s-0.2,0-0.3,0c-0.2,0-0.4,0-0.5-0.1s-0.3-0.2-0.3-0.4c-0.2,0.2-0.4,0.3-0.6,0.4s-0.5,0.1-0.8,0.1
				c-0.6,0-1-0.2-1.4-0.6c-0.3-0.4-0.5-1-0.5-1.7v-0.1c0-0.8,0.2-1.4,0.5-1.8c0.3-0.5,0.8-0.7,1.4-0.7c0.3,0,0.6,0.1,0.8,0.2
				s0.4,0.3,0.6,0.5l0.2-0.5H100.4z M97.3,111.5c0,0.5,0.1,0.9,0.3,1.2c0.2,0.3,0.5,0.4,0.9,0.4c0.2,0,0.4-0.1,0.6-0.2
				s0.3-0.2,0.4-0.4l0,0v-2.4c-0.1-0.2-0.3-0.3-0.4-0.4c-0.2-0.1-0.4-0.2-0.6-0.2c-0.4,0-0.7,0.2-0.9,0.5S97.3,110.8,97.3,111.5
				L97.3,111.5z M98.7,106.4h0.9l-0.8,1.7h-0.4L98.7,106.4z"/>
			<path id="XMLID_284_" d="M105.2,107.3v0.7h-2l0,0l1.6,1.2c0.3,0.2,0.5,0.5,0.7,0.9s0.2,0.8,0.2,1.2v0.1c0,0.7-0.2,1.3-0.6,1.7
				c-0.4,0.4-0.9,0.7-1.6,0.7s-1.2-0.2-1.6-0.7s-0.6-1-0.6-1.7v-0.1c0-0.6,0.2-1.2,0.5-1.6c0.3-0.4,0.7-0.7,1.3-0.8l0,0l0,0l-1.3-1
				v-0.5L105.2,107.3L105.2,107.3z M103.6,109.5c-0.4,0-0.7,0.2-0.9,0.5c-0.2,0.3-0.3,0.7-0.3,1.2v0.1c0,0.5,0.1,0.9,0.3,1.2
				c0.2,0.3,0.5,0.5,0.9,0.5s0.7-0.2,0.9-0.5c0.2-0.3,0.3-0.7,0.3-1.2v-0.1c0-0.5-0.1-0.9-0.3-1.2
				C104.4,109.7,104,109.5,103.6,109.5z"/>
			<path id="XMLID_287_" d="M110.6,108.9v3.5c0,0.2,0,0.4,0.1,0.4c0.1,0.1,0.1,0.1,0.2,0.1h0.1h0.1l0.1,0.6
				c-0.1,0.1-0.2,0.1-0.3,0.1s-0.2,0-0.3,0c-0.2,0-0.4,0-0.5-0.1s-0.3-0.2-0.3-0.4c-0.2,0.2-0.4,0.3-0.6,0.4s-0.5,0.1-0.8,0.1
				c-0.6,0-1-0.2-1.4-0.6c-0.3-0.4-0.5-1-0.5-1.7v-0.1c0-0.8,0.2-1.4,0.5-1.8c0.3-0.5,0.8-0.7,1.4-0.7c0.3,0,0.6,0.1,0.8,0.2
				s0.4,0.3,0.6,0.5l0.2-0.5H110.6z M107.5,111.5c0,0.5,0.1,0.9,0.3,1.2c0.2,0.3,0.5,0.4,0.9,0.4c0.2,0,0.4-0.1,0.6-0.2
				s0.3-0.2,0.4-0.4l0,0v-2.4c-0.1-0.2-0.3-0.3-0.4-0.4c-0.2-0.1-0.4-0.2-0.6-0.2c-0.4,0-0.7,0.2-0.9,0.5S107.5,110.8,107.5,111.5
				L107.5,111.5z"/>
		</g>
		<g id="XMLID_232_">
			<path id="XMLID_233_" d="M126.9,112h-2.7l-0.6,1.6h-0.9l2.5-6.4h0.7l2.4,6.4h-0.9L126.9,112z M124.5,111.3h2.2l-1.1-2.9l0,0
				L124.5,111.3z"/>
			<path id="XMLID_236_" d="M129.7,113.7h-1l1.7-4.5l-0.2-0.6c-0.1-0.2-0.2-0.4-0.3-0.6s-0.3-0.2-0.5-0.2c0,0-0.1,0-0.2,0
				c-0.1,0-0.1,0-0.1,0v-0.6c0.1,0,0.1,0,0.2,0c0.1,0,0.2,0,0.2,0c0.4,0,0.7,0.1,0.9,0.4c0.2,0.2,0.4,0.5,0.5,0.8l1.6,4.2
				c0.1,0.2,0.1,0.4,0.3,0.5c0.1,0.1,0.2,0.2,0.3,0.2h0.1h0.1v0.7h-0.1c-0.1,0-0.1,0-0.1,0c-0.3,0-0.6-0.1-0.8-0.3
				c-0.2-0.2-0.4-0.5-0.5-0.9l-0.9-2.3l0,0l-0.1,0.5L129.7,113.7z"/>
			<path id="XMLID_238_" d="M137.7,107.3v0.7h-2l0,0l1.6,1.2c0.3,0.2,0.5,0.5,0.7,0.9s0.2,0.8,0.2,1.2v0.1c0,0.7-0.2,1.3-0.6,1.7
				c-0.4,0.4-0.9,0.7-1.6,0.7s-1.2-0.2-1.6-0.7c-0.4-0.5-0.6-1-0.6-1.7v-0.1c0-0.6,0.2-1.2,0.5-1.6c0.3-0.4,0.7-0.7,1.3-0.8l0,0l0,0
				l-1.3-1v-0.5L137.7,107.3L137.7,107.3z M136.2,109.5c-0.4,0-0.7,0.2-0.9,0.5s-0.3,0.7-0.3,1.2v0.1c0,0.5,0.1,0.9,0.3,1.2
				s0.5,0.5,0.9,0.5s0.7-0.2,0.9-0.5c0.2-0.3,0.3-0.7,0.3-1.2v-0.1c0-0.5-0.1-0.9-0.3-1.2S136.6,109.5,136.2,109.5z"/>
			<path id="XMLID_241_" d="M141.1,111.6c-0.4,0-0.6,0.1-0.8,0.2c-0.2,0.1-0.3,0.3-0.3,0.6c0,0.2,0.1,0.4,0.3,0.5s0.5,0.2,0.8,0.2
				s0.6-0.1,0.8-0.2c0.2-0.2,0.3-0.4,0.3-0.6h0.8l0,0c0,0.5-0.2,0.8-0.6,1.1c-0.4,0.3-0.9,0.4-1.4,0.4c-0.6,0-1.1-0.1-1.4-0.4
				c-0.4-0.3-0.6-0.6-0.6-1c0-0.3,0.1-0.5,0.2-0.7c0.2-0.2,0.4-0.3,0.7-0.4c-0.3-0.1-0.5-0.2-0.6-0.4s-0.2-0.4-0.2-0.6
				c0-0.4,0.2-0.8,0.5-1c0.3-0.2,0.8-0.4,1.4-0.4c0.5,0,1,0.1,1.4,0.4c0.4,0.3,0.5,0.6,0.5,1l0,0h-0.8c0-0.2-0.1-0.4-0.3-0.5
				c-0.2-0.1-0.5-0.2-0.7-0.2c-0.3,0-0.6,0.1-0.8,0.2c-0.2,0.1-0.3,0.3-0.3,0.5c0,0.2,0.1,0.4,0.2,0.5c0.2,0.1,0.4,0.2,0.7,0.2h0.9
				v0.7h-0.7V111.6z"/>
			<path id="XMLID_243_" d="M145.1,108.9v2.7c0,0.5,0.1,0.9,0.3,1.1c0.2,0.2,0.5,0.4,0.8,0.4c0.4,0,0.7-0.2,0.9-0.6s0.3-0.8,0.3-1.3
				c0-0.4-0.1-0.7-0.2-1.1c-0.1-0.4-0.2-0.8-0.4-1.2h0.9c0.1,0.3,0.3,0.7,0.4,1c0.1,0.4,0.1,0.8,0.1,1.2c0,0.7-0.2,1.4-0.5,1.8
				s-0.8,0.7-1.5,0.7c-0.6,0-1.1-0.2-1.5-0.5c-0.4-0.4-0.5-0.9-0.5-1.6v-2.7L145.1,108.9L145.1,108.9z M145.7,108.1h-1v-0.9h1V108.1
				z M147.7,108.1h-1v-0.9h1V108.1z"/>
			<path id="XMLID_247_" d="M152.8,107.3v0.7h-2l0,0l1.6,1.2c0.3,0.2,0.5,0.5,0.7,0.9s0.2,0.8,0.2,1.2v0.1c0,0.7-0.2,1.3-0.6,1.7
				c-0.4,0.4-0.9,0.7-1.6,0.7s-1.2-0.2-1.6-0.7c-0.4-0.5-0.6-1-0.6-1.7v-0.1c0-0.6,0.2-1.2,0.5-1.6c0.3-0.4,0.7-0.7,1.3-0.8l0,0l0,0
				l-1.3-1v-0.5L152.8,107.3L152.8,107.3z M151.3,109.5c-0.4,0-0.7,0.2-0.9,0.5s-0.3,0.7-0.3,1.2v0.1c0,0.5,0.1,0.9,0.3,1.2
				s0.5,0.5,0.9,0.5s0.7-0.2,0.9-0.5c0.2-0.3,0.3-0.7,0.3-1.2v-0.1c0-0.5-0.1-0.9-0.3-1.2S151.7,109.5,151.3,109.5z"/>
			<path id="XMLID_250_" d="M154.2,111.3c0-0.7,0.2-1.3,0.6-1.7c0.4-0.5,0.9-0.7,1.6-0.7c0.7,0,1.2,0.2,1.6,0.7
				c0.4,0.5,0.6,1,0.6,1.7v0.1c0,0.7-0.2,1.3-0.6,1.7s-0.9,0.7-1.6,0.7s-1.2-0.2-1.6-0.7S154.2,112.1,154.2,111.3L154.2,111.3z
				 M155.1,111.3c0,0.5,0.1,0.9,0.3,1.2s0.5,0.5,0.9,0.5s0.7-0.2,0.9-0.5s0.3-0.7,0.3-1.2v-0.1c0-0.5-0.1-0.9-0.3-1.2
				s-0.5-0.5-0.9-0.5s-0.7,0.2-0.9,0.5C155.2,110.3,155.1,110.8,155.1,111.3L155.1,111.3z"/>
			<path id="XMLID_253_" d="M160.5,108.9v2.8c0,0.5,0.1,0.9,0.3,1.1c0.2,0.2,0.4,0.3,0.7,0.3s0.5-0.1,0.7-0.2
				c0.2-0.1,0.3-0.3,0.4-0.5v-3.5h0.9v4.8h-0.8v-0.5c-0.1,0.2-0.3,0.3-0.5,0.4s-0.4,0.1-0.6,0.1c-0.2,0-0.4,0-0.6-0.1
				c-0.2,0-0.3-0.1-0.4-0.2v2h-0.9v-6.6h0.8V108.9z"/>
			<path id="XMLID_255_" d="M168.4,108.9v3.5c0,0.2,0,0.4,0.1,0.4c0.1,0.1,0.1,0.1,0.2,0.1h0.1h0.1l0.1,0.6
				c-0.1,0.1-0.2,0.1-0.3,0.1s-0.2,0-0.3,0c-0.2,0-0.4,0-0.5-0.1s-0.3-0.2-0.3-0.4c-0.2,0.2-0.4,0.3-0.6,0.4
				c-0.2,0.1-0.5,0.1-0.8,0.1c-0.6,0-1-0.2-1.4-0.6c-0.3-0.4-0.5-1-0.5-1.7v-0.1c0-0.8,0.2-1.4,0.5-1.9s0.8-0.7,1.4-0.7
				c0.3,0,0.6,0.1,0.8,0.2c0.2,0.1,0.4,0.3,0.6,0.5l0.2-0.5L168.4,108.9L168.4,108.9z M165.3,111.5c0,0.5,0.1,0.9,0.3,1.2
				c0.2,0.3,0.5,0.4,0.9,0.4c0.2,0,0.4-0.1,0.6-0.2c0.2-0.1,0.3-0.3,0.4-0.4l0,0v-2.4c-0.1-0.2-0.3-0.3-0.4-0.4
				c-0.2-0.1-0.4-0.2-0.6-0.2c-0.4,0-0.7,0.2-0.9,0.5S165.3,110.8,165.3,111.5L165.3,111.5z M166.8,106.4h0.9l-0.8,1.7h-0.4
				L166.8,106.4z"/>
			<path id="XMLID_259_" d="M173.3,107.3v0.7h-2l0,0l1.6,1.2c0.3,0.2,0.5,0.5,0.7,0.9s0.2,0.8,0.2,1.2v0.1c0,0.7-0.2,1.3-0.6,1.7
				c-0.4,0.4-0.9,0.7-1.6,0.7s-1.2-0.2-1.6-0.7c-0.4-0.5-0.6-1-0.6-1.7v-0.1c0-0.6,0.2-1.2,0.5-1.6c0.3-0.4,0.7-0.7,1.3-0.8l0,0l0,0
				l-1.3-1v-0.5L173.3,107.3L173.3,107.3z M171.7,109.5c-0.4,0-0.7,0.2-0.9,0.5s-0.3,0.7-0.3,1.2v0.1c0,0.5,0.1,0.9,0.3,1.2
				s0.5,0.5,0.9,0.5s0.7-0.2,0.9-0.5c0.2-0.3,0.3-0.7,0.3-1.2v-0.1c0-0.5-0.1-0.9-0.3-1.2S172.1,109.5,171.7,109.5z"/>
			<path id="XMLID_262_" d="M178.7,108.9v3.5c0,0.2,0,0.4,0.1,0.4c0.1,0.1,0.1,0.1,0.2,0.1h0.1h0.1l0.1,0.6
				c-0.1,0.1-0.2,0.1-0.3,0.1s-0.2,0-0.3,0c-0.2,0-0.4,0-0.5-0.1s-0.3-0.2-0.3-0.4c-0.2,0.2-0.4,0.3-0.6,0.4
				c-0.2,0.1-0.5,0.1-0.8,0.1c-0.6,0-1-0.2-1.4-0.6c-0.3-0.4-0.5-1-0.5-1.7v-0.1c0-0.8,0.2-1.4,0.5-1.9s0.8-0.7,1.4-0.7
				c0.3,0,0.6,0.1,0.8,0.2c0.2,0.1,0.4,0.3,0.6,0.5l0.2-0.5L178.7,108.9L178.7,108.9z M175.5,111.5c0,0.5,0.1,0.9,0.3,1.2
				c0.2,0.3,0.5,0.4,0.9,0.4c0.2,0,0.4-0.1,0.6-0.2c0.2-0.1,0.3-0.3,0.4-0.4l0,0v-2.4c-0.1-0.2-0.3-0.3-0.4-0.4
				c-0.2-0.1-0.4-0.2-0.6-0.2c-0.4,0-0.7,0.2-0.9,0.5S175.5,110.8,175.5,111.5L175.5,111.5z"/>
		</g>
		<g id="XMLID_205_">
			<path id="XMLID_206_" d="M193.5,110.8h-0.7v2.9h-0.9v-6.4h0.9v2.8h0.7l2.3-2.8h1l0,0l-2.5,3.1l2.7,3.3l0,0h-1L193.5,110.8z"/>
			<path id="XMLID_208_" d="M199.3,111.6c-0.4,0-0.6,0.1-0.8,0.2c-0.2,0.1-0.3,0.3-0.3,0.6c0,0.2,0.1,0.4,0.3,0.5s0.5,0.2,0.8,0.2
				s0.6-0.1,0.8-0.2c0.2-0.2,0.3-0.4,0.3-0.6h0.8l0,0c0,0.5-0.2,0.8-0.6,1.1c-0.4,0.3-0.9,0.4-1.4,0.4c-0.6,0-1.1-0.1-1.4-0.4
				c-0.4-0.3-0.6-0.6-0.6-1c0-0.3,0.1-0.5,0.2-0.7c0.2-0.2,0.4-0.3,0.7-0.4c-0.3-0.1-0.5-0.2-0.6-0.4s-0.2-0.4-0.2-0.6
				c0-0.4,0.2-0.8,0.5-1c0.3-0.2,0.8-0.4,1.4-0.4c0.5,0,1,0.1,1.4,0.4c0.4,0.3,0.5,0.6,0.5,1l0,0h-0.8c0-0.2-0.1-0.4-0.3-0.5
				c-0.2-0.1-0.5-0.2-0.7-0.2c-0.3,0-0.6,0.1-0.8,0.2c-0.2,0.1-0.3,0.3-0.3,0.5c0,0.2,0.1,0.4,0.2,0.5c0.2,0.1,0.4,0.2,0.7,0.2h0.9
				v0.7h-0.7V111.6z"/>
			<path id="XMLID_210_" d="M206.1,109.6h-1.6v4.1h-0.9v-4.1h-1.5v-0.7h4V109.6z"/>
			<path id="XMLID_212_" d="M206.8,111.3c0-0.7,0.2-1.3,0.6-1.7c0.4-0.5,0.9-0.7,1.6-0.7c0.7,0,1.2,0.2,1.6,0.7
				c0.4,0.5,0.6,1,0.6,1.7v0.1c0,0.7-0.2,1.3-0.6,1.7s-0.9,0.7-1.6,0.7s-1.2-0.2-1.6-0.7S206.8,112.1,206.8,111.3L206.8,111.3z
				 M207.7,111.3c0,0.5,0.1,0.9,0.3,1.2s0.5,0.5,0.9,0.5s0.7-0.2,0.9-0.5s0.3-0.7,0.3-1.2v-0.1c0-0.5-0.1-0.9-0.3-1.2
				s-0.5-0.5-0.9-0.5s-0.7,0.2-0.9,0.5S207.7,110.8,207.7,111.3L207.7,111.3z"/>
			<path id="XMLID_215_" d="M213.7,112.3l0.1,0.3l0,0l0.1-0.3l1.1-3.4h0.9l-1.7,4.8h-0.7l-1.8-4.8h0.9L213.7,112.3z"/>
			<path id="XMLID_217_" d="M216.3,111.3c0-0.7,0.2-1.3,0.6-1.7c0.4-0.5,0.9-0.7,1.6-0.7c0.7,0,1.2,0.2,1.6,0.7
				c0.4,0.5,0.6,1,0.6,1.7v0.1c0,0.7-0.2,1.3-0.6,1.7s-0.9,0.7-1.6,0.7s-1.2-0.2-1.6-0.7S216.3,112.1,216.3,111.3L216.3,111.3z
				 M217.2,111.3c0,0.5,0.1,0.9,0.3,1.2s0.5,0.5,0.9,0.5s0.7-0.2,0.9-0.5s0.3-0.7,0.3-1.2v-0.1c0-0.5-0.1-0.9-0.3-1.2
				s-0.5-0.5-0.9-0.5s-0.7,0.2-0.9,0.5S217.2,110.8,217.2,111.3L217.2,111.3z"/>
			<path id="XMLID_220_" d="M222.5,108.9v2.8c0,0.5,0.1,0.9,0.3,1.1c0.2,0.2,0.4,0.3,0.7,0.3s0.5-0.1,0.7-0.2
				c0.2-0.1,0.3-0.3,0.4-0.5v-3.5h0.9v4.8h-0.8v-0.5c-0.1,0.2-0.3,0.3-0.5,0.4s-0.4,0.1-0.6,0.1c-0.2,0-0.4,0-0.6-0.1
				c-0.2,0-0.3-0.1-0.4-0.2v2h-0.9v-6.6h0.8V108.9z"/>
			<path id="XMLID_222_" d="M230.5,108.9v3.5c0,0.2,0,0.4,0.1,0.4c0.1,0.1,0.1,0.1,0.2,0.1h0.1h0.1l0.1,0.6
				c-0.1,0.1-0.2,0.1-0.3,0.1s-0.2,0-0.3,0c-0.2,0-0.4,0-0.5-0.1s-0.3-0.2-0.3-0.4c-0.2,0.2-0.4,0.3-0.6,0.4
				c-0.2,0.1-0.5,0.1-0.8,0.1c-0.6,0-1-0.2-1.4-0.6c-0.3-0.4-0.5-1-0.5-1.7v-0.1c0-0.8,0.2-1.4,0.5-1.9s0.8-0.7,1.4-0.7
				c0.3,0,0.6,0.1,0.8,0.2c0.2,0.1,0.4,0.3,0.6,0.5l0.2-0.5L230.5,108.9L230.5,108.9z M227.4,111.5c0,0.5,0.1,0.9,0.3,1.2
				c0.2,0.3,0.5,0.4,0.9,0.4c0.2,0,0.4-0.1,0.6-0.2c0.2-0.1,0.3-0.3,0.4-0.4l0,0v-2.4c-0.1-0.2-0.3-0.3-0.4-0.4
				c-0.2-0.1-0.4-0.2-0.6-0.2c-0.4,0-0.7,0.2-0.9,0.5S227.4,110.8,227.4,111.5L227.4,111.5z M228.9,106.4h0.9l-0.8,1.7h-0.4
				L228.9,106.4z"/>
			<path id="XMLID_226_" d="M235.3,107.3v0.7h-2l0,0l1.6,1.2c0.3,0.2,0.5,0.5,0.7,0.9s0.2,0.8,0.2,1.2v0.1c0,0.7-0.2,1.3-0.6,1.7
				c-0.4,0.4-0.9,0.7-1.6,0.7s-1.2-0.2-1.6-0.7c-0.4-0.5-0.6-1-0.6-1.7v-0.1c0-0.6,0.2-1.2,0.5-1.6c0.3-0.4,0.7-0.7,1.3-0.8l0,0l0,0
				l-1.3-1v-0.5L235.3,107.3L235.3,107.3z M233.8,109.5c-0.4,0-0.7,0.2-0.9,0.5s-0.3,0.7-0.3,1.2v0.1c0,0.5,0.1,0.9,0.3,1.2
				s0.5,0.5,0.9,0.5s0.7-0.2,0.9-0.5c0.2-0.3,0.3-0.7,0.3-1.2v-0.1c0-0.5-0.1-0.9-0.3-1.2S234.2,109.5,233.8,109.5z"/>
			<path id="XMLID_229_" d="M240.7,108.9v3.5c0,0.2,0,0.4,0.1,0.4c0.1,0.1,0.1,0.1,0.2,0.1h0.1h0.1l0.1,0.6
				c-0.1,0.1-0.2,0.1-0.3,0.1s-0.2,0-0.3,0c-0.2,0-0.4,0-0.5-0.1s-0.3-0.2-0.3-0.4c-0.2,0.2-0.4,0.3-0.6,0.4
				c-0.2,0.1-0.5,0.1-0.8,0.1c-0.6,0-1-0.2-1.4-0.6c-0.3-0.4-0.5-1-0.5-1.7v-0.1c0-0.8,0.2-1.4,0.5-1.9s0.8-0.7,1.4-0.7
				c0.3,0,0.6,0.1,0.8,0.2c0.2,0.1,0.4,0.3,0.6,0.5l0.2-0.5L240.7,108.9L240.7,108.9z M237.6,111.5c0,0.5,0.1,0.9,0.3,1.2
				c0.2,0.3,0.5,0.4,0.9,0.4c0.2,0,0.4-0.1,0.6-0.2c0.2-0.1,0.3-0.3,0.4-0.4l0,0v-2.4c-0.1-0.2-0.3-0.3-0.4-0.4
				c-0.2-0.1-0.4-0.2-0.6-0.2c-0.4,0-0.7,0.2-0.9,0.5S237.6,110.8,237.6,111.5L237.6,111.5z"/>
		</g>
		<g id="XMLID_181_">
			<path id="XMLID_182_" d="M254.9,110.4l1.7-3.3h1l-2.2,4.1v2.3h-0.9v-2.3l-2.2-4.1h1L254.9,110.4z"/>
			<path id="XMLID_184_" d="M261.7,107.2v0.7h-2l0,0l1.6,1.2c0.3,0.2,0.5,0.5,0.7,0.9c0.2,0.4,0.2,0.8,0.2,1.2v0.1
				c0,0.7-0.2,1.3-0.6,1.7c-0.4,0.4-0.9,0.7-1.6,0.7s-1.2-0.2-1.6-0.7s-0.6-1-0.6-1.7v-0.1c0-0.6,0.2-1.2,0.5-1.6
				c0.3-0.4,0.7-0.7,1.3-0.8l0,0l0,0l-1.3-1v-0.5h3.4V107.2z M260.1,109.4c-0.4,0-0.7,0.2-0.9,0.5c-0.2,0.3-0.3,0.7-0.3,1.2v0.1
				c0,0.5,0.1,0.9,0.3,1.2c0.2,0.3,0.5,0.5,0.9,0.5s0.7-0.2,0.9-0.5c0.2-0.3,0.3-0.7,0.3-1.2v-0.1c0-0.5-0.1-0.9-0.3-1.2
				C260.8,109.6,260.5,109.4,260.1,109.4z"/>
			<path id="XMLID_187_" d="M267.3,111.4c0,0.7-0.2,1.2-0.5,1.7c-0.3,0.4-0.8,0.6-1.3,0.6c-0.3,0-0.5,0-0.8-0.1s-0.4-0.2-0.6-0.4
				v2.3h-0.9V111l0,0c0-0.7,0.2-1.3,0.6-1.7c0.4-0.4,0.8-0.6,1.4-0.6c0.7,0,1.2,0.2,1.5,0.7C267.2,109.9,267.3,110.5,267.3,111.4
				L267.3,111.4z M266.5,111.3c0-0.6-0.1-1-0.3-1.3s-0.5-0.5-0.9-0.5s-0.6,0.2-0.8,0.5c-0.2,0.3-0.3,0.7-0.3,1.1v1.3
				c0.1,0.2,0.3,0.3,0.4,0.5c0.2,0.1,0.4,0.2,0.6,0.2c0.4,0,0.7-0.1,0.9-0.4C266.4,112.2,266.5,111.8,266.5,111.3L266.5,111.3z"/>
			<path id="XMLID_190_" d="M268.2,111.1c0-0.7,0.2-1.3,0.6-1.7c0.4-0.5,0.9-0.7,1.6-0.7s1.2,0.2,1.6,0.7s0.6,1,0.6,1.7v0.1
				c0,0.7-0.2,1.3-0.6,1.7s-0.9,0.7-1.6,0.7s-1.2-0.2-1.6-0.7C268.4,112.5,268.2,112,268.2,111.1L268.2,111.1z M269.1,111.2
				c0,0.5,0.1,0.9,0.3,1.2c0.2,0.3,0.5,0.5,0.9,0.5s0.7-0.2,0.9-0.5c0.2-0.3,0.3-0.7,0.3-1.2v-0.1c0-0.5-0.1-0.9-0.3-1.2
				c-0.2-0.3-0.5-0.5-0.9-0.5s-0.7,0.2-0.9,0.5C269.2,110.2,269.1,110.6,269.1,111.2L269.1,111.2z"/>
			<path id="XMLID_193_" d="M277,107.2v0.7h-1.3c-0.4,0-0.6,0.1-0.8,0.3c-0.2,0.2-0.3,0.4-0.3,0.7c0,0.3,0.1,0.5,0.3,0.6
				c0.2,0.2,0.5,0.2,1,0.2h0.6v0.7h-0.6c-0.5,0-1,0.1-1.3,0.3c-0.3,0.2-0.4,0.6-0.4,1s0.1,0.6,0.4,0.9c0.3,0.3,0.6,0.3,1,0.3h0.3
				c0.5,0,0.8,0.1,1.1,0.3c0.3,0.2,0.4,0.5,0.4,0.8s-0.1,0.6-0.3,0.9c-0.2,0.2-0.5,0.4-0.8,0.6l-0.3-0.6c0.2-0.1,0.4-0.2,0.5-0.3
				s0.2-0.3,0.2-0.5c0-0.2-0.1-0.3-0.2-0.4c-0.1-0.1-0.3-0.1-0.5-0.1h-0.3c-0.7,0-1.2-0.2-1.6-0.5c-0.4-0.3-0.6-0.8-0.6-1.4
				c0-0.4,0.1-0.8,0.3-1.1c0.2-0.3,0.6-0.5,1-0.6c-0.3-0.1-0.6-0.3-0.7-0.5c-0.2-0.2-0.3-0.4-0.3-0.7c0-0.2,0-0.4,0.1-0.6
				c0.1-0.2,0.2-0.3,0.4-0.4h-0.9v-0.7L277,107.2L277,107.2z"/>
			<path id="XMLID_195_" d="M279,108.8v2.7c0,0.5,0.1,0.9,0.3,1.1c0.2,0.2,0.5,0.4,0.8,0.4c0.4,0,0.7-0.2,0.9-0.6
				c0.2-0.4,0.3-0.8,0.3-1.3c0-0.4-0.1-0.7-0.2-1.1s-0.2-0.8-0.4-1.2h0.9c0.1,0.3,0.3,0.7,0.4,1c0.1,0.4,0.1,0.8,0.1,1.2
				c0,0.7-0.2,1.4-0.5,1.8c-0.3,0.4-0.8,0.7-1.5,0.7c-0.6,0-1.1-0.2-1.5-0.5c-0.4-0.4-0.5-0.9-0.5-1.6v-2.7h0.9V108.8z M280.1,106.4
				h0.9l-0.8,1.7h-0.4L280.1,106.4z"/>
			<path id="XMLID_198_" d="M283.8,113.6h-1l1.7-4.5l-0.2-0.6c-0.1-0.2-0.2-0.4-0.3-0.6c-0.1-0.2-0.3-0.2-0.5-0.2c0,0-0.1,0-0.2,0
				s-0.1,0-0.1,0V107c0.1,0,0.1,0,0.2,0s0.2,0,0.2,0c0.4,0,0.7,0.1,0.9,0.4c0.2,0.2,0.4,0.5,0.5,0.8l1.6,4.2
				c0.1,0.2,0.1,0.4,0.3,0.5c0.1,0.1,0.2,0.2,0.3,0.2h0.1h0.1v0.7h-0.1c-0.1,0-0.1,0-0.1,0c-0.3,0-0.6-0.1-0.8-0.3
				c-0.2-0.2-0.4-0.5-0.5-0.9l-0.9-2.3l0,0l-0.1,0.5L283.8,113.6z"/>
			<path id="XMLID_200_" d="M289.4,108.8v3.6c0,0.2,0,0.4,0.1,0.4c0.1,0.1,0.2,0.1,0.3,0.1c0.1,0,0.1,0,0.2,0s0.1,0,0.2-0.1l0.2,0.6
				c-0.1,0.1-0.3,0.2-0.4,0.2s-0.3,0-0.4,0c-0.3,0-0.6-0.1-0.8-0.3s-0.3-0.5-0.3-1v-3.5C288.5,108.8,289.4,108.8,289.4,108.8z"/>
			<path id="XMLID_202_" d="M291.1,111.1c0-0.7,0.2-1.3,0.6-1.7c0.4-0.5,0.9-0.7,1.6-0.7s1.2,0.2,1.6,0.7s0.6,1,0.6,1.7v0.1
				c0,0.7-0.2,1.3-0.6,1.7s-0.9,0.7-1.6,0.7s-1.2-0.2-1.6-0.7C291.3,112.5,291.1,112,291.1,111.1L291.1,111.1z M292,111.2
				c0,0.5,0.1,0.9,0.3,1.2c0.2,0.3,0.5,0.5,0.9,0.5s0.7-0.2,0.9-0.5c0.2-0.3,0.3-0.7,0.3-1.2v-0.1c0-0.5-0.1-0.9-0.3-1.2
				c-0.2-0.3-0.5-0.5-0.9-0.5s-0.7,0.2-0.9,0.5C292.1,110.2,292,110.6,292,111.2L292,111.2z"/>
		</g>
		<g id="XMLID_140_">
			<path id="XMLID_141_" d="M310.1,112h-2.7l-0.6,1.6h-0.9l2.5-6.4h0.7l2.4,6.4h-0.9L310.1,112z M307.7,111.3h2.2l-1.1-2.9l0,0
				L307.7,111.3z"/>
			<path id="XMLID_145_" d="M313.2,108.9v2.8c0,0.5,0.1,0.9,0.3,1.1c0.2,0.2,0.4,0.3,0.7,0.3c0.3,0,0.5-0.1,0.7-0.2
				c0.2-0.1,0.3-0.3,0.4-0.5v-3.5h0.9v4.8h-0.8v-0.5c-0.1,0.2-0.3,0.3-0.5,0.4s-0.4,0.1-0.6,0.1s-0.4,0-0.6-0.1
				c-0.2,0-0.3-0.1-0.4-0.2v2h-0.9v-6.6h0.8V108.9z"/>
			<path id="XMLID_147_" d="M318.5,108.9v3.6c0,0.2,0,0.4,0.1,0.4c0.1,0.1,0.2,0.1,0.3,0.1c0.1,0,0.1,0,0.2,0s0.1,0,0.2-0.1l0.2,0.6
				c-0.1,0.1-0.3,0.2-0.4,0.2s-0.3,0-0.4,0c-0.3,0-0.6-0.1-0.8-0.3s-0.3-0.5-0.3-1v-3.5C317.6,108.9,318.5,108.9,318.5,108.9z"/>
			<path id="XMLID_149_" d="M321.8,112.3l0.1,0.3l0,0l0.1-0.3l1.1-3.4h0.9l-1.7,4.8h-0.7l-1.8-4.8h0.9L321.8,112.3z"/>
			<path id="XMLID_166_" d="M324.5,111.3c0-0.7,0.2-1.3,0.6-1.7c0.4-0.5,0.9-0.7,1.6-0.7s1.2,0.2,1.6,0.7s0.6,1,0.6,1.7v0.1
				c0,0.7-0.2,1.3-0.6,1.7s-0.9,0.7-1.6,0.7s-1.2-0.2-1.6-0.7C324.6,112.6,324.5,112.1,324.5,111.3L324.5,111.3z M325.3,111.3
				c0,0.5,0.1,0.9,0.3,1.2c0.2,0.3,0.5,0.5,0.9,0.5s0.7-0.2,0.9-0.5c0.2-0.3,0.3-0.7,0.3-1.2v-0.1c0-0.5-0.1-0.9-0.3-1.2
				c-0.2-0.3-0.5-0.5-0.9-0.5s-0.7,0.2-0.9,0.5S325.3,110.8,325.3,111.3L325.3,111.3z"/>
			<path id="XMLID_169_" d="M330.7,108.9v2.8c0,0.5,0.1,0.9,0.3,1.1c0.2,0.2,0.4,0.3,0.7,0.3c0.3,0,0.5-0.1,0.7-0.2
				c0.2-0.1,0.3-0.3,0.4-0.5v-3.5h0.9v4.8h-0.8v-0.5c-0.1,0.2-0.3,0.3-0.5,0.4s-0.4,0.1-0.6,0.1s-0.4,0-0.6-0.1
				c-0.2,0-0.3-0.1-0.4-0.2v2h-0.9v-6.6h0.8V108.9z"/>
			<path id="XMLID_171_" d="M338.7,108.9v3.5c0,0.2,0,0.4,0.1,0.4c0.1,0.1,0.1,0.1,0.2,0.1h0.1h0.1l0.1,0.6
				c-0.1,0.1-0.2,0.1-0.3,0.1s-0.2,0-0.3,0c-0.2,0-0.4,0-0.5-0.1s-0.3-0.2-0.3-0.4c-0.2,0.2-0.4,0.3-0.6,0.4s-0.5,0.1-0.8,0.1
				c-0.6,0-1-0.2-1.4-0.6c-0.3-0.4-0.5-1-0.5-1.7v-0.1c0-0.8,0.2-1.4,0.5-1.9s0.8-0.7,1.4-0.7c0.3,0,0.6,0.1,0.8,0.2
				c0.2,0.1,0.4,0.3,0.6,0.5l0.2-0.5L338.7,108.9L338.7,108.9z M335.6,111.5c0,0.5,0.1,0.9,0.3,1.2c0.2,0.3,0.5,0.4,0.9,0.4
				c0.2,0,0.4-0.1,0.6-0.2s0.3-0.3,0.4-0.4l0,0v-2.4c-0.1-0.2-0.3-0.3-0.4-0.4c-0.2-0.1-0.4-0.2-0.6-0.2c-0.4,0-0.7,0.2-0.9,0.5
				S335.6,110.8,335.6,111.5L335.6,111.5z M337,106.4h0.9l-0.8,1.7h-0.4L337,106.4z"/>
			<path id="XMLID_175_" d="M343.5,107.3v0.7h-2l0,0l1.6,1.2c0.3,0.2,0.5,0.5,0.7,0.9s0.2,0.8,0.2,1.2v0.1c0,0.7-0.2,1.3-0.6,1.7
				c-0.4,0.4-0.9,0.7-1.6,0.7s-1.2-0.2-1.6-0.7s-0.6-1-0.6-1.7v-0.1c0-0.6,0.2-1.2,0.5-1.6c0.3-0.4,0.7-0.7,1.3-0.8l0,0l0,0l-1.3-1
				v-0.5L343.5,107.3L343.5,107.3z M341.9,109.5c-0.4,0-0.7,0.2-0.9,0.5c-0.2,0.3-0.3,0.7-0.3,1.2v0.1c0,0.5,0.1,0.9,0.3,1.2
				c0.2,0.3,0.5,0.5,0.9,0.5s0.7-0.2,0.9-0.5c0.2-0.3,0.3-0.7,0.3-1.2v-0.1c0-0.5-0.1-0.9-0.3-1.2S342.3,109.5,341.9,109.5z"/>
			<path id="XMLID_178_" d="M348.9,108.9v3.5c0,0.2,0,0.4,0.1,0.4c0.1,0.1,0.1,0.1,0.2,0.1h0.1h0.1l0.1,0.6
				c-0.1,0.1-0.2,0.1-0.3,0.1s-0.2,0-0.3,0c-0.2,0-0.4,0-0.5-0.1s-0.3-0.2-0.3-0.4c-0.2,0.2-0.4,0.3-0.6,0.4s-0.5,0.1-0.8,0.1
				c-0.6,0-1-0.2-1.4-0.6c-0.3-0.4-0.5-1-0.5-1.7v-0.1c0-0.8,0.2-1.4,0.5-1.9s0.8-0.7,1.4-0.7c0.3,0,0.6,0.1,0.8,0.2
				c0.2,0.1,0.4,0.3,0.6,0.5l0.2-0.5L348.9,108.9L348.9,108.9z M345.8,111.5c0,0.5,0.1,0.9,0.3,1.2c0.2,0.3,0.5,0.4,0.9,0.4
				c0.2,0,0.4-0.1,0.6-0.2s0.3-0.3,0.4-0.4l0,0v-2.4c-0.1-0.2-0.3-0.3-0.4-0.4c-0.2-0.1-0.4-0.2-0.6-0.2c-0.4,0-0.7,0.2-0.9,0.5
				S345.8,110.8,345.8,111.5L345.8,111.5z"/>
		</g>
		<g id="XMLID_47_">
			<g id="XMLID_56_">
				<path id="XMLID_81_" class="st3" d="M54.5,108.5v-1.8l8,3.5v1.4l-8,3.5v-1.8l5.6-2.2l0.8-0.2v-0.1l-0.8-0.2L54.5,108.5z"/>
			</g>
		</g>
		<g id="XMLID_139_">
			<g id="XMLID_150_">
				<path id="XMLID_151_" class="st3" d="M113.5,108.5v-1.8l8,3.5v1.4l-8,3.5v-1.8l5.6-2.2l0.8-0.2v-0.1l-0.8-0.2L113.5,108.5z"/>
			</g>
		</g>
		<g id="XMLID_153_">
			<g id="XMLID_154_">
				<path id="XMLID_155_" class="st3" d="M181.6,108.5v-1.8l8,3.5v1.4l-8,3.5v-1.8l5.6-2.2l0.8-0.1v-0.1l-0.8-0.2L181.6,108.5z"/>
			</g>
		</g>
		<g id="XMLID_157_">
			<g id="XMLID_158_">
				<path id="XMLID_159_" class="st3" d="M243.1,108.5v-1.8l8,3.5v1.4l-8,3.5v-1.8l5.6-2.2l0.8-0.2v-0.1l-0.8-0.2L243.1,108.5z"/>
			</g>
		</g>
		<g id="XMLID_161_">
			<g id="XMLID_162_">
				<path id="XMLID_163_" class="st3" d="M296.6,108.5v-1.8l8,3.5v1.4l-8,3.5v-1.8l5.6-2.2l0.8-0.1v-0.1l-0.8-0.2L296.6,108.5z"/>
			</g>
		</g>
	</g>
</g>
<g id="XMLID_1_">
</g>
<g id="XMLID_2_">
</g>
<g id="XMLID_3_">
</g>
<g id="XMLID_4_">
</g>
<g id="XMLID_5_">
</g>
<g id="XMLID_6_">
</g>
<g id="XMLID_7_">
</g>
<g id="XMLID_8_">
</g>
<g id="XMLID_9_">
</g>
<g id="XMLID_10_">
</g>
<g id="XMLID_11_">
</g>
<g id="XMLID_12_">
</g>
<g id="XMLID_13_">
</g>
<g id="XMLID_14_">
</g>
<g id="XMLID_15_">
</g>
</svg>
